NotoSansSundanese-Regular.ufo
<glyph name="uni1B80" format="2">
  <unicode hex="1B80"/>
  <outline>
    <contour>
      <point x="-216" y="756" type="curve" smooth="yes"/>
      <point x="-157" y="756"/>
      <point x="-109" y="804"/>
      <point x="-109" y="863" type="curve" smooth="yes"/>
      <point x="-109" y="922"/>
      <point x="-157" y="970"/>
      <point x="-216" y="970" type="curve" smooth="yes"/>
      <point x="-275" y="970"/>
      <point x="-323" y="922"/>
      <point x="-323" y="863" type="curve" smooth="yes"/>
      <point x="-323" y="804"/>
      <point x="-275" y="756"/>
    </contour>
    <contour>
      <point x="-216" y="814" type="curve" smooth="yes"/>
      <point x="-243" y="814"/>
      <point x="-265" y="836"/>
      <point x="-265" y="863" type="curve" smooth="yes"/>
      <point x="-265" y="890"/>
      <point x="-243" y="911"/>
      <point x="-216" y="911" type="curve" smooth="yes"/>
      <point x="-189" y="911"/>
      <point x="-168" y="890"/>
      <point x="-168" y="863" type="curve" smooth="yes"/>
      <point x="-168" y="836"/>
      <point x="-189" y="814"/>
    </contour>
  </outline>
</glyph>
<glyph name="uni1B81" format="2">
  <unicode hex="1B81"/>
  <outline>
    <contour>
      <point x="-202" y="756" type="line"/>
      <point x="-166" y="756" type="line"/>
      <point x="-62" y="934" type="line"/>
      <point x="-107" y="961" type="line"/>
      <point x="-186" y="832" type="line"/>
      <point x="-258" y="939" type="line"/>
      <point x="-301" y="939" type="line"/>
      <point x="-369" y="837" type="line"/>
      <point x="-330" y="809" type="line"/>
      <point x="-283" y="875" type="line"/>
    </contour>
  </outline>
</glyph>
<glyph name="uni1B82" format="2">
  <advance width="387"/>
  <unicode hex="1B82"/>
  <outline>
    <contour>
      <point x="236" y="0" type="line"/>
      <point x="303" y="0" type="line"/>
      <point x="203" y="284" type="line"/>
      <point x="136" y="284" type="line"/>
    </contour>
    <contour>
      <point x="101" y="0" type="line"/>
      <point x="168" y="0" type="line"/>
      <point x="68" y="284" type="line"/>
      <point x="1" y="284" type="line"/>
    </contour>
  </outline>
</glyph>
<glyph name="uni1B83" format="2">
  <advance width="871"/>
  <unicode hex="1B83"/>
  <outline>
    <contour>
      <point x="497" y="-13" type="curve" smooth="yes"/>
      <point x="727" y="-13"/>
      <point x="797" y="105"/>
      <point x="797" y="223" type="curve" smooth="yes"/>
      <point x="797" y="333"/>
      <point x="692" y="422"/>
      <point x="539" y="422" type="curve"/>
      <point x="787" y="652" type="line"/>
      <point x="794" y="714" type="line"/>
      <point x="376" y="714" type="line"/>
      <point x="351" y="635" type="line"/>
      <point x="647" y="635" type="line"/>
      <point x="417" y="422" type="line"/>
      <point x="394" y="349" type="line"/>
      <point x="488" y="349" type="line" smooth="yes"/>
      <point x="607" y="349"/>
      <point x="697" y="303"/>
      <point x="697" y="223" type="curve" smooth="yes"/>
      <point x="697" y="138"/>
      <point x="636" y="69"/>
      <point x="497" y="69" type="curve" smooth="yes"/>
      <point x="277" y="69"/>
      <point x="176" y="207"/>
      <point x="176" y="394" type="curve" smooth="yes"/>
      <point x="176" y="532"/>
      <point x="214" y="615"/>
      <point x="303" y="736" type="curve"/>
      <point x="197" y="736" type="line"/>
      <point x="125" y="649"/>
      <point x="79" y="521"/>
      <point x="79" y="394" type="curve" smooth="yes"/>
      <point x="79" y="177"/>
      <point x="197" y="-13"/>
    </contour>
  </outline>
</glyph>
<glyph name="uni1B84" format="2">
  <advance width="561"/>
  <unicode hex="1B84"/>
  <outline>
    <contour>
      <point x="-22" y="0" type="line"/>
      <point x="439" y="0" type="line"/>
      <point x="507" y="206" type="line"/>
      <point x="413" y="206" type="line"/>
      <point x="370" y="79" type="line"/>
      <point x="101" y="79" type="line"/>
      <point x="284" y="635" type="line"/>
      <point x="408" y="635" type="line"/>
      <point x="434" y="714" type="line"/>
      <point x="214" y="714" type="line"/>
    </contour>
  </outline>
</glyph>
<glyph name="uni1B85" format="2">
  <advance width="765"/>
  <unicode hex="1B85"/>
  <outline>
    <contour>
      <point x="92" y="0" type="line"/>
      <point x="655" y="0" type="line"/>
      <point x="673" y="54" type="line"/>
      <point x="540" y="173" type="line" smooth="yes"/>
      <point x="522" y="189"/>
      <point x="490" y="217"/>
      <point x="490" y="236" type="curve" smooth="yes"/>
      <point x="490" y="251"/>
      <point x="496" y="272"/>
      <point x="535" y="272" type="curve" smooth="yes"/>
      <point x="735" y="272" type="line"/>
      <point x="761" y="351" type="line"/>
      <point x="534" y="351" type="line" smooth="yes"/>
      <point x="437" y="351"/>
      <point x="398" y="301"/>
      <point x="398" y="239" type="curve" smooth="yes"/>
      <point x="398" y="195"/>
      <point x="429" y="157"/>
      <point x="457" y="133" type="curve" smooth="yes"/>
      <point x="518" y="79" type="line"/>
      <point x="217" y="79" type="line"/>
      <point x="427" y="714" type="line"/>
      <point x="98" y="714" type="line"/>
      <point x="72" y="635" type="line"/>
      <point x="301" y="635" type="line"/>
    </contour>
  </outline>
</glyph>
<glyph name="uni1B86" format="2">
  <advance width="911"/>
  <unicode hex="1B86"/>
  <outline>
    <contour>
      <point x="506" y="-13" type="curve" smooth="yes"/>
      <point x="752" y="-13"/>
      <point x="837" y="105"/>
      <point x="837" y="223" type="curve" smooth="yes"/>
      <point x="837" y="333"/>
      <point x="732" y="422"/>
      <point x="579" y="422" type="curve"/>
      <point x="616" y="456"/>
      <point x="656" y="480"/>
      <point x="718" y="480" type="curve" smooth="yes"/>
      <point x="793" y="480"/>
      <point x="798" y="427"/>
      <point x="842" y="427" type="curve" smooth="yes"/>
      <point x="868" y="427"/>
      <point x="886" y="443"/>
      <point x="886" y="468" type="curve" smooth="yes"/>
      <point x="886" y="496"/>
      <point x="857" y="538"/>
      <point x="778" y="538" type="curve" smooth="yes"/>
      <point x="748" y="538"/>
      <point x="717" y="531"/>
      <point x="688" y="523" type="curve"/>
      <point x="827" y="652" type="line"/>
      <point x="834" y="714" type="line"/>
      <point x="416" y="714" type="line"/>
      <point x="391" y="635" type="line"/>
      <point x="687" y="635" type="line"/>
      <point x="457" y="422" type="line"/>
      <point x="434" y="349" type="line"/>
      <point x="528" y="349" type="line" smooth="yes"/>
      <point x="647" y="349"/>
      <point x="737" y="303"/>
      <point x="737" y="223" type="curve" smooth="yes"/>
      <point x="737" y="138"/>
      <point x="659" y="69"/>
      <point x="506" y="69" type="curve" smooth="yes"/>
      <point x="270" y="69"/>
      <point x="176" y="207"/>
      <point x="176" y="394" type="curve" smooth="yes"/>
      <point x="176" y="527"/>
      <point x="212" y="614"/>
      <point x="303" y="736" type="curve"/>
      <point x="197" y="736" type="line"/>
      <point x="125" y="648"/>
      <point x="79" y="521"/>
      <point x="79" y="394" type="curve" smooth="yes"/>
      <point x="79" y="177"/>
      <point x="192" y="-13"/>
    </contour>
  </outline>
</glyph>
<glyph name="uni1B87" format="2">
  <advance width="804"/>
  <unicode hex="1B87"/>
  <outline>
    <contour>
      <point x="92" y="0" type="line"/>
      <point x="473" y="0" type="line"/>
      <point x="547" y="212" type="line" smooth="yes"/>
      <point x="555" y="235"/>
      <point x="568" y="280"/>
      <point x="618" y="280" type="curve" smooth="yes"/>
      <point x="652" y="280"/>
      <point x="662" y="263"/>
      <point x="662" y="242" type="curve" smooth="yes"/>
      <point x="662" y="223"/>
      <point x="655" y="200"/>
      <point x="649" y="183" type="curve" smooth="yes"/>
      <point x="590" y="0" type="line"/>
      <point x="683" y="0" type="line"/>
      <point x="755" y="216" type="line" smooth="yes"/>
      <point x="760" y="230"/>
      <point x="762" y="244"/>
      <point x="762" y="256" type="curve" smooth="yes"/>
      <point x="762" y="323"/>
      <point x="696" y="358"/>
      <point x="632" y="358" type="curve" smooth="yes"/>
      <point x="519" y="358"/>
      <point x="480" y="295"/>
      <point x="458" y="233" type="curve" smooth="yes"/>
      <point x="403" y="79" type="line"/>
      <point x="217" y="79" type="line"/>
      <point x="428" y="714" type="line"/>
      <point x="82" y="714" type="line"/>
      <point x="218" y="376" type="line"/>
    </contour>
    <contour>
      <point x="257" y="496" type="line"/>
      <point x="202" y="635" type="line"/>
      <point x="304" y="635" type="line"/>
    </contour>
  </outline>
</glyph>
<glyph name="uni1B88" format="2">
  <advance width="795"/>
  <unicode hex="1B88"/>
  <outline>
    <contour>
      <point x="410" y="-13" type="curve" smooth="yes"/>
      <point x="634" y="-13"/>
      <point x="748" y="157"/>
      <point x="748" y="344" type="curve" smooth="yes"/>
      <point x="748" y="378" type="line"/>
      <point x="680" y="378" type="line" smooth="yes"/>
      <point x="454" y="378"/>
      <point x="391" y="414"/>
      <point x="391" y="497" type="curve" smooth="yes"/>
      <point x="391" y="614"/>
      <point x="544" y="635"/>
      <point x="689" y="635" type="curve" smooth="yes"/>
      <point x="714" y="635" type="line"/>
      <point x="740" y="714" type="line"/>
      <point x="695" y="714" type="line" smooth="yes"/>
      <point x="506" y="714"/>
      <point x="291" y="680"/>
      <point x="291" y="494" type="curve" smooth="yes"/>
      <point x="291" y="356"/>
      <point x="403" y="290"/>
      <point x="646" y="290" type="curve"/>
      <point x="646" y="198"/>
      <point x="552" y="69"/>
      <point x="410" y="69" type="curve" smooth="yes"/>
      <point x="231" y="69"/>
      <point x="136" y="210"/>
      <point x="136" y="421" type="curve" smooth="yes"/>
      <point x="136" y="452" type="line"/>
      <point x="39" y="452" type="line"/>
      <point x="39" y="404" type="line" smooth="yes"/>
      <point x="39" y="196"/>
      <point x="134" y="-13"/>
    </contour>
  </outline>
</glyph>
<glyph name="uni1B89" format="2">
  <advance width="871"/>
  <unicode hex="1B89"/>
  <outline>
    <contour>
      <point x="497" y="-13" type="curve" smooth="yes"/>
      <point x="720" y="-13"/>
      <point x="797" y="92"/>
      <point x="797" y="193" type="curve" smooth="yes"/>
      <point x="797" y="303"/>
      <point x="720" y="381"/>
      <point x="567" y="381" type="curve"/>
      <point x="769" y="486" type="line"/>
      <point x="778" y="562" type="line"/>
      <point x="392" y="562" type="line"/>
      <point x="367" y="483" type="line"/>
      <point x="615" y="483" type="line"/>
      <point x="445" y="395" type="line"/>
      <point x="417" y="308" type="line"/>
      <point x="520" y="308" type="line" smooth="yes"/>
      <point x="639" y="308"/>
      <point x="697" y="273"/>
      <point x="697" y="193" type="curve" smooth="yes"/>
      <point x="697" y="121"/>
      <point x="623" y="69"/>
      <point x="497" y="69" type="curve" smooth="yes"/>
      <point x="277" y="69"/>
      <point x="176" y="207"/>
      <point x="176" y="394" type="curve" smooth="yes"/>
      <point x="176" y="521"/>
      <point x="209" y="610"/>
      <point x="303" y="736" type="curve"/>
      <point x="197" y="736" type="line"/>
      <point x="125" y="649"/>
      <point x="79" y="519"/>
      <point x="79" y="394" type="curve" smooth="yes"/>
      <point x="79" y="177"/>
      <point x="197" y="-13"/>
    </contour>
    <contour>
      <point x="568" y="606" type="line"/>
      <point x="634" y="606" type="line"/>
      <point x="783" y="758" type="line"/>
      <point x="690" y="758" type="line"/>
      <point x="601" y="669" type="line"/>
      <point x="512" y="758" type="line"/>
      <point x="419" y="758" type="line"/>
    </contour>
  </outline>
</glyph>
<glyph name="uni1B8A" format="2">
  <advance width="793"/>
  <unicode hex="1B8A"/>
  <outline>
    <contour>
      <point x="494" y="0" type="line"/>
      <point x="593" y="0" type="line"/>
      <point x="831" y="714" type="line"/>
      <point x="505" y="714" type="line"/>
      <point x="479" y="635" type="line"/>
      <point x="708" y="635" type="line"/>
    </contour>
    <contour>
      <point x="90" y="0" type="line"/>
      <point x="189" y="0" type="line"/>
      <point x="427" y="714" type="line"/>
      <point x="101" y="714" type="line"/>
      <point x="75" y="635" type="line"/>
      <point x="304" y="635" type="line"/>
    </contour>
  </outline>
</glyph>
<glyph name="uni1B8B" format="2">
  <advance width="800"/>
  <unicode hex="1B8B"/>
  <outline>
    <contour>
      <point x="-23" y="0" type="line"/>
      <point x="76" y="0" type="line"/>
      <point x="286" y="635" type="line"/>
      <point x="450" y="635" type="line"/>
      <point x="240" y="0" type="line"/>
      <point x="339" y="0" type="line"/>
      <point x="548" y="635" type="line"/>
      <point x="712" y="635" type="line"/>
      <point x="502" y="0" type="line"/>
      <point x="601" y="0" type="line"/>
      <point x="835" y="714" type="line"/>
      <point x="213" y="714" type="line"/>
    </contour>
  </outline>
</glyph>
<glyph name="uni1B8C" format="2">
  <advance width="801"/>
  <unicode hex="1B8C"/>
  <outline>
    <contour>
      <point x="93" y="0" type="line"/>
      <point x="629" y="0" type="line"/>
      <point x="744" y="351" type="line"/>
      <point x="471" y="351" type="line"/>
      <point x="445" y="272" type="line"/>
      <point x="625" y="272" type="line"/>
      <point x="561" y="79" type="line"/>
      <point x="218" y="79" type="line"/>
      <point x="428" y="714" type="line"/>
      <point x="100" y="714" type="line"/>
      <point x="74" y="635" type="line"/>
      <point x="302" y="635" type="line"/>
    </contour>
  </outline>
</glyph>
<glyph name="uni1B8D" format="2">
  <advance width="728"/>
  <unicode hex="1B8D"/>
  <outline>
    <contour>
      <point x="93" y="0" type="line"/>
      <point x="678" y="0" type="line"/>
      <point x="564" y="351" type="line"/>
      <point x="469" y="351" type="line"/>
      <point x="557" y="79" type="line"/>
      <point x="218" y="79" type="line"/>
      <point x="428" y="714" type="line"/>
      <point x="100" y="714" type="line"/>
      <point x="74" y="635" type="line"/>
      <point x="302" y="635" type="line"/>
    </contour>
  </outline>
</glyph>
<glyph name="uni1B8E" format="2">
  <advance width="750"/>
  <unicode hex="1B8E"/>
  <outline>
    <contour>
      <point x="421" y="-14" type="curve" smooth="yes"/>
      <point x="531" y="-14"/>
      <point x="571" y="51"/>
      <point x="616" y="187" type="curve" smooth="yes"/>
      <point x="791" y="714" type="line"/>
      <point x="693" y="714" type="line"/>
      <point x="539" y="249" type="line" smooth="yes"/>
      <point x="492" y="107"/>
      <point x="462" y="76"/>
      <point x="413" y="76" type="curve" smooth="yes"/>
      <point x="378" y="76"/>
      <point x="327" y="109"/>
      <point x="270" y="161" type="curve"/>
      <point x="452" y="714" type="line"/>
      <point x="121" y="714" type="line"/>
      <point x="95" y="635" type="line"/>
      <point x="326" y="635" type="line"/>
      <point x="189" y="213" type="line"/>
      <point x="169" y="225"/>
      <point x="134" y="234"/>
      <point x="104" y="234" type="curve" smooth="yes"/>
      <point x="35" y="234"/>
      <point x="-30" y="193"/>
      <point x="-30" y="105" type="curve" smooth="yes"/>
      <point x="-30" y="21"/>
      <point x="36" y="-13"/>
      <point x="100" y="-13" type="curve" smooth="yes"/>
      <point x="169" y="-13"/>
      <point x="207" y="20"/>
      <point x="234" y="68" type="curve"/>
      <point x="282" y="28"/>
      <point x="345" y="-14"/>
    </contour>
    <contour>
      <point x="101" y="59" type="curve" smooth="yes"/>
      <point x="67" y="59"/>
      <point x="49" y="80"/>
      <point x="49" y="110" type="curve" smooth="yes"/>
      <point x="49" y="140"/>
      <point x="73" y="158"/>
      <point x="102" y="158" type="curve" smooth="yes"/>
      <point x="129" y="158"/>
      <point x="148" y="148"/>
      <point x="166" y="131" type="curve"/>
      <point x="159" y="110"/>
      <point x="143" y="59"/>
    </contour>
  </outline>
</glyph>
<glyph name="uni1B8F" format="2">
  <advance width="815"/>
  <unicode hex="1B8F"/>
  <outline>
    <contour>
      <point x="-23" y="0" type="line"/>
      <point x="304" y="0" type="line"/>
      <point x="397" y="284" type="line"/>
      <point x="493" y="0" type="line"/>
      <point x="587" y="0" type="line"/>
      <point x="442" y="414" type="line"/>
      <point x="352" y="414" type="line"/>
      <point x="234" y="79" type="line"/>
      <point x="101" y="79" type="line"/>
      <point x="286" y="635" type="line"/>
      <point x="411" y="635" type="line"/>
      <point x="437" y="714" type="line"/>
      <point x="212" y="714" type="line"/>
    </contour>
    <contour>
      <point x="672" y="0" type="line"/>
      <point x="765" y="0" type="line"/>
      <point x="620" y="414" type="line"/>
      <point x="525" y="414" type="line"/>
    </contour>
  </outline>
</glyph>
<glyph name="uni1B90" format="2">
  <advance width="829"/>
  <unicode hex="1B90"/>
  <outline>
    <contour>
      <point x="93" y="0" type="line"/>
      <point x="473" y="0" type="line"/>
      <point x="536" y="181" type="line" smooth="yes"/>
      <point x="544" y="204"/>
      <point x="557" y="249"/>
      <point x="607" y="249" type="curve" smooth="yes"/>
      <point x="641" y="249"/>
      <point x="651" y="232"/>
      <point x="651" y="211" type="curve" smooth="yes"/>
      <point x="651" y="192"/>
      <point x="643" y="169"/>
      <point x="638" y="152" type="curve" smooth="yes"/>
      <point x="590" y="0" type="line"/>
      <point x="684" y="0" type="line"/>
      <point x="744" y="185" type="line" smooth="yes"/>
      <point x="749" y="199"/>
      <point x="751" y="212"/>
      <point x="751" y="225" type="curve" smooth="yes"/>
      <point x="751" y="291"/>
      <point x="685" y="327"/>
      <point x="621" y="327" type="curve" smooth="yes"/>
      <point x="508" y="327"/>
      <point x="469" y="264"/>
      <point x="447" y="202" type="curve" smooth="yes"/>
      <point x="403" y="79" type="line"/>
      <point x="217" y="79" type="line"/>
      <point x="428" y="714" type="line"/>
      <point x="95" y="714" type="line"/>
      <point x="69" y="635" type="line"/>
      <point x="302" y="635" type="line"/>
    </contour>
  </outline>
</glyph>
<glyph name="uni1B91" format="2">
  <advance width="1077"/>
  <unicode hex="1B91"/>
  <outline>
    <contour>
      <point x="84" y="0" type="line"/>
      <point x="474" y="0" type="line"/>
      <point x="580" y="323" type="line"/>
      <point x="814" y="0" type="line"/>
      <point x="876" y="0" type="line"/>
      <point x="1114" y="714" type="line"/>
      <point x="623" y="714" type="line"/>
      <point x="581" y="589" type="line"/>
      <point x="677" y="589" type="line"/>
      <point x="693" y="635" type="line"/>
      <point x="991" y="635" type="line"/>
      <point x="822" y="135" type="line"/>
      <point x="579" y="474" type="line"/>
      <point x="536" y="474" type="line"/>
      <point x="404" y="79" type="line"/>
      <point x="207" y="79" type="line"/>
      <point x="417" y="714" type="line"/>
      <point x="102" y="714" type="line"/>
      <point x="76" y="635" type="line"/>
      <point x="294" y="635" type="line"/>
    </contour>
  </outline>
</glyph>
<glyph name="uni1B92" format="2">
  <advance width="861"/>
  <unicode hex="1B92"/>
  <outline>
    <contour>
      <point x="33" y="0" type="line"/>
      <point x="393" y="0" type="line"/>
      <point x="543" y="457" type="line"/>
      <point x="727" y="457" type="line"/>
      <point x="578" y="0" type="line"/>
      <point x="676" y="0" type="line"/>
      <point x="852" y="536" type="line"/>
      <point x="569" y="536" type="line"/>
      <point x="627" y="714" type="line"/>
      <point x="530" y="714" type="line"/>
      <point x="323" y="79" type="line"/>
      <point x="156" y="79" type="line"/>
      <point x="310" y="536" type="line"/>
      <point x="62" y="536" type="line"/>
      <point x="36" y="457" type="line"/>
      <point x="187" y="457" type="line"/>
    </contour>
  </outline>
</glyph>
<glyph name="uni1B93" format="2">
  <advance width="712"/>
  <unicode hex="1B93"/>
  <outline>
    <contour>
      <point x="-22" y="0" type="line"/>
      <point x="379" y="0" type="line"/>
      <point x="472" y="284" type="line"/>
      <point x="567" y="0" type="line"/>
      <point x="662" y="0" type="line"/>
      <point x="518" y="414" type="line"/>
      <point x="426" y="414" type="line"/>
      <point x="308" y="79" type="line"/>
      <point x="101" y="79" type="line"/>
      <point x="284" y="635" type="line"/>
      <point x="487" y="635" type="line"/>
      <point x="513" y="714" type="line"/>
      <point x="214" y="714" type="line"/>
    </contour>
  </outline>
</glyph>
<glyph name="uni1B94" format="2">
  <advance width="721"/>
  <unicode hex="1B94"/>
  <outline>
    <contour>
      <point x="163" y="0" type="line"/>
      <point x="655" y="0" type="line"/>
      <point x="681" y="79" type="line"/>
      <point x="288" y="79" type="line"/>
      <point x="498" y="714" type="line"/>
      <point x="102" y="714" type="line"/>
      <point x="76" y="635" type="line"/>
      <point x="372" y="635" type="line"/>
    </contour>
  </outline>
</glyph>
<glyph name="uni1B95" format="2">
  <advance width="793"/>
  <unicode hex="1B95"/>
  <outline>
    <contour>
      <point x="93" y="0" type="line"/>
      <point x="593" y="0" type="line"/>
      <point x="829" y="714" type="line"/>
      <point x="502" y="714" type="line"/>
      <point x="476" y="635" type="line"/>
      <point x="703" y="635" type="line"/>
      <point x="520" y="79" type="line"/>
      <point x="218" y="79" type="line"/>
      <point x="428" y="714" type="line"/>
      <point x="101" y="714" type="line"/>
      <point x="75" y="635" type="line"/>
      <point x="302" y="635" type="line"/>
    </contour>
  </outline>
</glyph>
<glyph name="uni1B96" format="2">
  <advance width="793"/>
  <unicode hex="1B96"/>
  <outline>
    <contour>
      <point x="93" y="0" type="line"/>
      <point x="593" y="0" type="line"/>
      <point x="829" y="714" type="line"/>
      <point x="732" y="714" type="line"/>
      <point x="520" y="79" type="line"/>
      <point x="218" y="79" type="line"/>
      <point x="428" y="714" type="line"/>
      <point x="101" y="714" type="line"/>
      <point x="75" y="635" type="line"/>
      <point x="302" y="635" type="line"/>
    </contour>
  </outline>
</glyph>
<glyph name="uni1B97" format="2">
  <advance width="676"/>
  <unicode hex="1B97"/>
  <outline>
    <contour>
      <point x="-22" y="0" type="line"/>
      <point x="476" y="0" type="line"/>
      <point x="712" y="714" type="line"/>
      <point x="615" y="714" type="line"/>
      <point x="403" y="79" type="line"/>
      <point x="100" y="79" type="line"/>
      <point x="310" y="714" type="line"/>
      <point x="213" y="714" type="line"/>
    </contour>
  </outline>
</glyph>
<glyph name="uni1B98" format="2">
  <advance width="970"/>
  <unicode hex="1B98"/>
  <outline>
    <contour>
      <point x="-22" y="0" type="line"/>
      <point x="368" y="0" type="line"/>
      <point x="474" y="323" type="line"/>
      <point x="708" y="0" type="line"/>
      <point x="770" y="0" type="line"/>
      <point x="1008" y="714" type="line"/>
      <point x="517" y="714" type="line"/>
      <point x="475" y="589" type="line"/>
      <point x="571" y="589" type="line"/>
      <point x="587" y="635" type="line"/>
      <point x="885" y="635" type="line"/>
      <point x="716" y="135" type="line"/>
      <point x="473" y="474" type="line"/>
      <point x="430" y="474" type="line"/>
      <point x="298" y="79" type="line"/>
      <point x="101" y="79" type="line"/>
      <point x="284" y="635" type="line"/>
      <point x="377" y="635" type="line"/>
      <point x="402" y="714" type="line"/>
      <point x="214" y="714" type="line"/>
    </contour>
  </outline>
</glyph>
<glyph name="uni1B99" format="2">
  <advance width="691"/>
  <unicode hex="1B99"/>
  <outline>
    <contour>
      <point x="72" y="0" type="line"/>
      <point x="492" y="0" type="line"/>
      <point x="727" y="714" type="line"/>
      <point x="101" y="714" type="line"/>
      <point x="75" y="635" type="line"/>
      <point x="602" y="635" type="line"/>
      <point x="419" y="79" type="line"/>
      <point x="197" y="79" type="line"/>
      <point x="309" y="413" type="line"/>
      <point x="71" y="413" type="line"/>
      <point x="45" y="334" type="line"/>
      <point x="183" y="334" type="line"/>
    </contour>
  </outline>
</glyph>
<glyph name="uni1B9A" format="2">
  <advance width="869"/>
  <unicode hex="1B9A"/>
  <outline>
    <contour>
      <point x="33" y="0" type="line"/>
      <point x="393" y="0" type="line"/>
      <point x="487" y="286" type="line"/>
      <point x="586" y="0" type="line"/>
      <point x="684" y="0" type="line"/>
      <point x="860" y="536" type="line"/>
      <point x="763" y="536" type="line"/>
      <point x="631" y="136" type="line"/>
      <point x="533" y="427" type="line"/>
      <point x="627" y="714" type="line"/>
      <point x="530" y="714" type="line"/>
      <point x="323" y="79" type="line"/>
      <point x="156" y="79" type="line"/>
      <point x="310" y="536" type="line"/>
      <point x="62" y="536" type="line"/>
      <point x="36" y="457" type="line"/>
      <point x="187" y="457" type="line"/>
    </contour>
  </outline>
</glyph>
<glyph name="uni1B9B" format="2">
  <advance width="535"/>
  <unicode hex="1B9B"/>
  <outline>
    <contour>
      <point x="227" y="0" type="line"/>
      <point x="326" y="0" type="line"/>
      <point x="408" y="250" type="line"/>
      <point x="512" y="250" type="line"/>
      <point x="538" y="329" type="line"/>
      <point x="434" y="329" type="line"/>
      <point x="508" y="553" type="line"/>
      <point x="91" y="553" type="line"/>
      <point x="65" y="474" type="line"/>
      <point x="384" y="474" type="line"/>
      <point x="336" y="329" type="line"/>
      <point x="100" y="329" type="line"/>
      <point x="74" y="250" type="line"/>
      <point x="310" y="250" type="line"/>
    </contour>
    <contour>
      <point x="74" y="635" type="line"/>
      <point x="535" y="635" type="line"/>
      <point x="561" y="714" type="line"/>
      <point x="100" y="714" type="line"/>
    </contour>
  </outline>
</glyph>
<glyph name="uni1B9C" format="2">
  <advance width="788"/>
  <unicode hex="1B9C"/>
  <outline>
    <contour>
      <point x="-20" y="0" type="line"/>
      <point x="78" y="0" type="line"/>
      <point x="287" y="635" type="line"/>
      <point x="405" y="635" type="line"/>
      <point x="194" y="0" type="line"/>
      <point x="589" y="0" type="line"/>
      <point x="824" y="714" type="line"/>
      <point x="725" y="714" type="line"/>
      <point x="516" y="79" type="line"/>
      <point x="318" y="79" type="line"/>
      <point x="528" y="714" type="line"/>
      <point x="214" y="714" type="line"/>
    </contour>
  </outline>
</glyph>
<glyph name="uni1B9D" format="2">
  <advance width="684"/>
  <unicode hex="1B9D"/>
  <outline>
    <contour>
      <point x="-22" y="0" type="line"/>
      <point x="555" y="0" type="line"/>
      <point x="670" y="351" type="line"/>
      <point x="371" y="351" type="line"/>
      <point x="345" y="272" type="line"/>
      <point x="551" y="272" type="line"/>
      <point x="487" y="79" type="line"/>
      <point x="101" y="79" type="line"/>
      <point x="284" y="635" type="line"/>
      <point x="487" y="635" type="line"/>
      <point x="513" y="714" type="line"/>
      <point x="214" y="714" type="line"/>
    </contour>
  </outline>
</glyph>
<glyph name="uni1B9E" format="2">
  <advance width="797"/>
  <unicode hex="1B9E"/>
  <outline>
    <contour>
      <point x="496" y="0" type="line"/>
      <point x="593" y="0" type="line"/>
      <point x="699" y="318" type="line"/>
      <point x="816" y="318" type="line"/>
      <point x="842" y="397" type="line"/>
      <point x="725" y="397" type="line"/>
      <point x="831" y="714" type="line"/>
      <point x="505" y="714" type="line"/>
      <point x="479" y="635" type="line"/>
      <point x="710" y="635" type="line"/>
      <point x="629" y="397" type="line"/>
      <point x="505" y="397" type="line"/>
      <point x="479" y="318" type="line"/>
      <point x="603" y="318" type="line"/>
    </contour>
    <contour>
      <point x="92" y="0" type="line"/>
      <point x="189" y="0" type="line"/>
      <point x="295" y="318" type="line"/>
      <point x="412" y="318" type="line"/>
      <point x="438" y="397" type="line"/>
      <point x="321" y="397" type="line"/>
      <point x="427" y="714" type="line"/>
      <point x="101" y="714" type="line"/>
      <point x="75" y="635" type="line"/>
      <point x="306" y="635" type="line"/>
      <point x="225" y="397" type="line"/>
      <point x="101" y="397" type="line"/>
      <point x="75" y="318" type="line"/>
      <point x="199" y="318" type="line"/>
    </contour>
  </outline>
</glyph>
<glyph name="uni1B9F" format="2">
  <advance width="797"/>
  <unicode hex="1B9F"/>
  <outline>
    <contour>
      <point x="90" y="0" type="line"/>
      <point x="189" y="0" type="line"/>
      <point x="295" y="318" type="line"/>
      <point x="601" y="318" type="line"/>
      <point x="494" y="0" type="line"/>
      <point x="593" y="0" type="line"/>
      <point x="831" y="714" type="line"/>
      <point x="101" y="714" type="line"/>
      <point x="75" y="635" type="line"/>
      <point x="304" y="635" type="line"/>
      <point x="223" y="397" type="line"/>
      <point x="101" y="397" type="line"/>
      <point x="75" y="318" type="line"/>
      <point x="197" y="318" type="line"/>
    </contour>
    <contour>
      <point x="321" y="397" type="line"/>
      <point x="400" y="635" type="line"/>
      <point x="708" y="635" type="line"/>
      <point x="627" y="397" type="line"/>
    </contour>
  </outline>
</glyph>
<glyph name="uni1BA0" format="2">
  <advance width="770"/>
  <unicode hex="1BA0"/>
  <outline>
    <contour>
      <point x="55" y="0" type="line"/>
      <point x="346" y="0" type="line"/>
      <point x="554" y="635" type="line"/>
      <point x="682" y="635" type="line"/>
      <point x="474" y="0" type="line"/>
      <point x="572" y="0" type="line"/>
      <point x="806" y="714" type="line"/>
      <point x="483" y="714" type="line"/>
      <point x="276" y="79" type="line"/>
      <point x="178" y="79" type="line"/>
      <point x="290" y="412" type="line"/>
      <point x="42" y="412" type="line"/>
      <point x="16" y="333" type="line"/>
      <point x="167" y="333" type="line"/>
    </contour>
  </outline>
</glyph>
<glyph name="uni1BA1" format="2">
  <advance width="212"/>
  <unicode hex="1BA1"/>
  <outline>
    <contour>
      <point x="-578" y="-241" type="line"/>
      <point x="-108" y="-241" type="line"/>
      <point x="47" y="228" type="line"/>
      <point x="102" y="228" type="line"/>
      <point x="71" y="133" type="line"/>
      <point x="133" y="133" type="line"/>
      <point x="182" y="284" type="line"/>
      <point x="-6" y="284" type="line"/>
      <point x="-159" y="-181" type="line"/>
      <point x="-497" y="-181" type="line"/>
      <point x="-480" y="-129" type="line"/>
      <point x="-542" y="-129" type="line"/>
    </contour>
  </outline>
</glyph>
<glyph name="uni1BA2" format="2">
  <unicode hex="1BA2"/>
  <outline>
    <contour>
      <point x="-126" y="-271" type="curve" smooth="yes"/>
      <point x="-53" y="-271"/>
      <point x="12" y="-240"/>
      <point x="12" y="-155" type="curve" smooth="yes"/>
      <point x="12" y="-107"/>
      <point x="-26" y="-56"/>
      <point x="-63" y="-25" type="curve"/>
      <point x="-107" y="-65" type="line"/>
      <point x="-82" y="-94"/>
      <point x="-54" y="-120"/>
      <point x="-54" y="-157" type="curve" smooth="yes"/>
      <point x="-54" y="-190"/>
      <point x="-78" y="-212"/>
      <point x="-128" y="-212" type="curve" smooth="yes"/>
      <point x="-219" y="-212"/>
      <point x="-346" y="-76"/>
      <point x="-397" y="-30" type="curve"/>
      <point x="-585" y="-124" type="line"/>
      <point x="-554" y="-185" type="line"/>
      <point x="-408" y="-110" type="line"/>
      <point x="-338" y="-172"/>
      <point x="-240" y="-271"/>
    </contour>
  </outline>
</glyph>
<glyph name="uni1BA3" format="2">
  <unicode hex="1BA3"/>
  <outline>
    <contour>
      <point x="-581" y="-248" type="line"/>
      <point x="-525" y="-248" type="line"/>
      <point x="-476" y="-98" type="line"/>
      <point x="-414" y="-98" type="line"/>
      <point x="-460" y="-240" type="line"/>
      <point x="-328" y="-240" type="line"/>
      <point x="-313" y="-195" type="line"/>
      <point x="-390" y="-195" type="line"/>
      <point x="-343" y="-53" type="line"/>
      <point x="-517" y="-53" type="line"/>
    </contour>
  </outline>
</glyph>
<glyph name="uni1BA4" format="2">
  <unicode hex="1BA4"/>
  <outline>
    <contour>
      <point x="-228" y="754" type="line"/>
      <point x="-147" y="965" type="line"/>
      <point x="-358" y="965" type="line"/>
      <point x="-358" y="917" type="line"/>
      <point x="-226" y="917" type="line"/>
      <point x="-262" y="825" type="line"/>
      <point x="-360" y="839" type="line"/>
      <point x="-369" y="791" type="line"/>
    </contour>
  </outline>
</glyph>
<glyph name="uni1BA5" format="2">
  <unicode hex="1BA5"/>
  <outline>
    <contour>
      <point x="-481" y="-248" type="line"/>
      <point x="-424" y="-248" type="line"/>
      <point x="-347" y="-53" type="line"/>
      <point x="-538" y="-53" type="line"/>
      <point x="-538" y="-101" type="line"/>
      <point x="-424" y="-101" type="line"/>
    </contour>
  </outline>
</glyph>
<glyph name="uni1BA6" format="2">
  <advance width="375"/>
  <unicode hex="1BA6"/>
  <outline>
    <contour>
      <point x="24" y="0" type="line"/>
      <point x="292" y="0" type="line"/>
      <point x="314" y="68" type="line"/>
      <point x="125" y="68" type="line"/>
      <point x="162" y="151" type="line"/>
      <point x="267" y="151" type="line"/>
      <point x="284" y="205" type="line"/>
      <point x="186" y="205" type="line"/>
      <point x="252" y="356" type="line"/>
      <point x="8" y="356" type="line"/>
      <point x="-14" y="288" type="line"/>
      <point x="153" y="288" type="line"/>
    </contour>
  </outline>
</glyph>
<glyph name="uni1BA7" format="2">
  <advance width="375"/>
  <unicode hex="1BA7"/>
  <outline>
    <contour>
      <point x="35" y="0" type="line"/>
      <point x="303" y="0" type="line"/>
      <point x="325" y="68" type="line"/>
      <point x="136" y="68" type="line"/>
      <point x="263" y="356" type="line"/>
      <point x="19" y="356" type="line"/>
      <point x="-3" y="288" type="line"/>
      <point x="164" y="288" type="line"/>
      <point x="126" y="205" type="line"/>
      <point x="21" y="205" type="line"/>
      <point x="4" y="151" type="line"/>
      <point x="102" y="151" type="line"/>
    </contour>
  </outline>
</glyph>
<glyph name="uni1BA8" format="2">
  <unicode hex="1BA8"/>
  <outline>
    <contour>
      <point x="-261" y="756" type="line"/>
      <point x="-215" y="756" type="line"/>
      <point x="-90" y="955" type="line"/>
      <point x="-161" y="955" type="line"/>
      <point x="-238" y="827" type="line"/>
      <point x="-315" y="955" type="line"/>
      <point x="-386" y="955" type="line"/>
    </contour>
  </outline>
</glyph>
<glyph name="uni1BA9" format="2">
  <unicode hex="1BA9"/>
  <outline>
    <contour>
      <point x="-261" y="756" type="line"/>
      <point x="-215" y="756" type="line"/>
      <point x="-90" y="955" type="line"/>
      <point x="-161" y="955" type="line"/>
      <point x="-238" y="827" type="line"/>
      <point x="-255" y="856" type="line"/>
      <point x="-194" y="955" type="line"/>
      <point x="-245" y="955" type="line"/>
      <point x="-280" y="897" type="line"/>
      <point x="-315" y="955" type="line"/>
      <point x="-386" y="955" type="line"/>
    </contour>
  </outline>
</glyph>
<glyph name="uni1BAA" format="2">
  <advance width="264"/>
  <unicode hex="1BAA"/>
  <outline>
    <contour>
      <point x="107" y="-127" type="curve" smooth="yes"/>
      <point x="139" y="-127"/>
      <point x="186" y="-119"/>
      <point x="215" y="-100" type="curve"/>
      <point x="198" y="-53" type="line"/>
      <point x="186" y="-60"/>
      <point x="153" y="-77"/>
      <point x="111" y="-77" type="curve" smooth="yes"/>
      <point x="77" y="-77"/>
      <point x="67" y="-66"/>
      <point x="67" y="-52" type="curve" smooth="yes"/>
      <point x="67" y="-32"/>
      <point x="105" y="-8"/>
      <point x="140" y="24" type="curve" smooth="yes"/>
      <point x="170" y="52"/>
      <point x="204" y="74"/>
      <point x="204" y="127" type="curve" smooth="yes"/>
      <point x="204" y="186"/>
      <point x="159" y="215"/>
      <point x="88" y="222" type="curve"/>
      <point x="187" y="308" type="line"/>
      <point x="187" y="329" type="line"/>
      <point x="-5" y="329" type="line"/>
      <point x="-20" y="284" type="line"/>
      <point x="79" y="284" type="line"/>
      <point x="-3" y="213" type="line"/>
      <point x="-12" y="185" type="line"/>
      <point x="12" y="185" type="line" smooth="yes"/>
      <point x="93" y="185"/>
      <point x="141" y="172"/>
      <point x="141" y="127" type="curve" smooth="yes"/>
      <point x="141" y="99"/>
      <point x="108" y="71"/>
      <point x="74" y="42" type="curve" smooth="yes"/>
      <point x="38" y="11"/>
      <point x="2" y="-19"/>
      <point x="2" y="-58" type="curve" smooth="yes"/>
      <point x="2" y="-111"/>
      <point x="50" y="-127"/>
    </contour>
  </outline>
</glyph>
<glyph name="uni1BAB" format="2">
  <unicode hex="1BAB"/>
  <outline>
    <contour>
      <point x="119" y="253" type="line"/>
      <point x="150" y="253" type="line"/>
      <point x="150" y="318" type="line"/>
      <point x="215" y="318" type="line"/>
      <point x="215" y="349" type="line"/>
      <point x="150" y="349" type="line"/>
      <point x="150" y="414" type="line"/>
      <point x="119" y="414" type="line"/>
      <point x="119" y="349" type="line"/>
      <point x="54" y="349" type="line"/>
      <point x="54" y="318" type="line"/>
      <point x="119" y="318" type="line"/>
    </contour>
  </outline>
</glyph>
<glyph name="uni1BAC" format="2">
  <unicode hex="1BAC"/>
  <outline>
    <contour>
      <point x="-489" y="-271" type="curve" smooth="yes"/>
      <point x="-338" y="-271"/>
      <point x="-266" y="-163"/>
      <point x="-266" y="-50" type="curve" smooth="yes"/>
      <point x="-266" y="-39" type="line"/>
      <point x="-326" y="-39" type="line"/>
      <point x="-326" y="-52" type="line" smooth="yes"/>
      <point x="-326" y="-112"/>
      <point x="-363" y="-212"/>
      <point x="-491" y="-212" type="curve" smooth="yes"/>
      <point x="-570" y="-212"/>
      <point x="-607" y="-186"/>
      <point x="-607" y="-144" type="curve" smooth="yes"/>
      <point x="-607" y="-98"/>
      <point x="-563" y="-81"/>
      <point x="-509" y="-81" type="curve" smooth="yes"/>
      <point x="-486" y="-81"/>
      <point x="-462" y="-82"/>
      <point x="-450" y="-83" type="curve"/>
      <point x="-450" y="-32" type="line"/>
      <point x="-459" y="-30"/>
      <point x="-481" y="-28"/>
      <point x="-509" y="-28" type="curve" smooth="yes"/>
      <point x="-594" y="-28"/>
      <point x="-673" y="-69"/>
      <point x="-673" y="-144" type="curve" smooth="yes"/>
      <point x="-673" y="-223"/>
      <point x="-593" y="-271"/>
    </contour>
  </outline>
</glyph>
<glyph name="uni1BAD" format="2">
  <unicode hex="1BAD"/>
  <outline>
    <contour>
      <point x="-401" y="-248" type="line"/>
      <point x="-208" y="-248" type="line"/>
      <point x="-208" y="-205" type="line"/>
      <point x="-330" y="-205" type="line"/>
      <point x="-263" y="-53" type="line"/>
      <point x="-456" y="-53" type="line"/>
      <point x="-456" y="-96" type="line"/>
      <point x="-334" y="-96" type="line"/>
    </contour>
    <contour>
      <point x="-610" y="-248" type="line"/>
      <point x="-417" y="-248" type="line"/>
      <point x="-417" y="-205" type="line"/>
      <point x="-539" y="-205" type="line"/>
      <point x="-472" y="-53" type="line"/>
      <point x="-665" y="-53" type="line"/>
      <point x="-665" y="-96" type="line"/>
      <point x="-543" y="-96" type="line"/>
    </contour>
  </outline>
</glyph>
<glyph name="uni1BAE" format="2">
  <advance width="1382"/>
  <unicode hex="1BAE"/>
  <outline>
    <contour>
      <point x="92" y="0" type="line"/>
      <point x="189" y="0" type="line"/>
      <point x="401" y="635" type="line"/>
      <point x="663" y="635" type="line"/>
      <point x="454" y="0" type="line"/>
      <point x="551" y="0" type="line"/>
      <point x="661" y="333" type="line"/>
      <point x="779" y="333" type="line"/>
      <point x="667" y="0" type="line"/>
      <point x="958" y="0" type="line"/>
      <point x="1166" y="635" type="line"/>
      <point x="1294" y="635" type="line"/>
      <point x="1086" y="0" type="line"/>
      <point x="1184" y="0" type="line"/>
      <point x="1418" y="714" type="line"/>
      <point x="1095" y="714" type="line"/>
      <point x="888" y="79" type="line"/>
      <point x="790" y="79" type="line"/>
      <point x="902" y="412" type="line"/>
      <point x="687" y="412" type="line"/>
      <point x="787" y="714" type="line"/>
      <point x="100" y="714" type="line"/>
      <point x="74" y="635" type="line"/>
      <point x="301" y="635" type="line"/>
    </contour>
  </outline>
</glyph>
<glyph name="uni1BAF" format="2">
  <advance width="1647"/>
  <unicode hex="1BAF"/>
  <outline>
    <contour>
      <point x="92" y="0" type="line"/>
      <point x="189" y="0" type="line"/>
      <point x="295" y="318" type="line"/>
      <point x="560" y="318" type="line"/>
      <point x="453" y="0" type="line"/>
      <point x="550" y="0" type="line"/>
      <point x="656" y="318" type="line"/>
      <point x="919" y="318" type="line"/>
      <point x="812" y="0" type="line"/>
      <point x="1172" y="0" type="line"/>
      <point x="1266" y="286" type="line"/>
      <point x="1365" y="0" type="line"/>
      <point x="1463" y="0" type="line"/>
      <point x="1639" y="536" type="line"/>
      <point x="1542" y="536" type="line"/>
      <point x="1410" y="136" type="line"/>
      <point x="1312" y="427" type="line"/>
      <point x="1406" y="714" type="line"/>
      <point x="1309" y="714" type="line"/>
      <point x="1102" y="79" type="line"/>
      <point x="935" y="79" type="line"/>
      <point x="1042" y="397" type="line"/>
      <point x="682" y="397" type="line"/>
      <point x="788" y="714" type="line"/>
      <point x="101" y="714" type="line"/>
      <point x="75" y="635" type="line"/>
      <point x="306" y="635" type="line"/>
      <point x="225" y="397" type="line"/>
      <point x="101" y="397" type="line"/>
      <point x="75" y="318" type="line"/>
      <point x="199" y="318" type="line"/>
    </contour>
    <contour>
      <point x="321" y="397" type="line"/>
      <point x="400" y="635" type="line"/>
      <point x="667" y="635" type="line"/>
      <point x="586" y="397" type="line"/>
    </contour>
  </outline>
</glyph>
<glyph name="uni1BB0" format="2">
  <advance width="828"/>
  <unicode hex="1BB0"/>
  <outline>
    <contour>
      <point x="419" y="-2" type="curve" smooth="yes"/>
      <point x="617" y="-2"/>
      <point x="778" y="159"/>
      <point x="778" y="357" type="curve" smooth="yes"/>
      <point x="778" y="555"/>
      <point x="617" y="716"/>
      <point x="419" y="716" type="curve" smooth="yes"/>
      <point x="221" y="716"/>
      <point x="60" y="555"/>
      <point x="60" y="357" type="curve" smooth="yes"/>
      <point x="60" y="159"/>
      <point x="221" y="-2"/>
    </contour>
    <contour>
      <point x="419" y="90" type="curve" smooth="yes"/>
      <point x="272" y="90"/>
      <point x="152" y="210"/>
      <point x="152" y="357" type="curve" smooth="yes"/>
      <point x="152" y="503"/>
      <point x="272" y="624"/>
      <point x="419" y="624" type="curve" smooth="yes"/>
      <point x="565" y="624"/>
      <point x="686" y="503"/>
      <point x="686" y="357" type="curve" smooth="yes"/>
      <point x="686" y="210"/>
      <point x="565" y="90"/>
    </contour>
  </outline>
</glyph>
<glyph name="uni1BB1" format="2">
  <advance width="799"/>
  <unicode hex="1BB1"/>
  <outline>
    <contour>
      <point x="91" y="0" type="line"/>
      <point x="627" y="0" type="line"/>
      <point x="741" y="351" type="line"/>
      <point x="465" y="351" type="line"/>
      <point x="418" y="211" type="line"/>
      <point x="510" y="211" type="line"/>
      <point x="533" y="272" type="line"/>
      <point x="621" y="272" type="line"/>
      <point x="559" y="79" type="line"/>
      <point x="215" y="79" type="line"/>
      <point x="399" y="635" type="line"/>
      <point x="558" y="635" type="line"/>
      <point x="580" y="574" type="line"/>
      <point x="674" y="574" type="line"/>
      <point x="626" y="714" type="line"/>
      <point x="123" y="714" type="line"/>
      <point x="77" y="574" type="line"/>
      <point x="168" y="574" type="line"/>
      <point x="188" y="635" type="line"/>
      <point x="301" y="635" type="line"/>
    </contour>
  </outline>
</glyph>
<glyph name="uni1BB2" format="2">
  <advance width="701"/>
  <unicode hex="1BB2"/>
  <outline>
    <contour>
      <point x="93" y="0" type="line"/>
      <point x="578" y="0" type="line"/>
      <point x="655" y="236" type="line"/>
      <point x="561" y="236" type="line"/>
      <point x="510" y="79" type="line"/>
      <point x="218" y="79" type="line"/>
      <point x="282" y="272" type="line"/>
      <point x="455" y="272" type="line"/>
      <point x="481" y="351" type="line"/>
      <point x="308" y="351" type="line"/>
      <point x="428" y="714" type="line"/>
      <point x="123" y="714" type="line"/>
      <point x="77" y="574" type="line"/>
      <point x="168" y="574" type="line"/>
      <point x="188" y="635" type="line"/>
      <point x="302" y="635" type="line"/>
    </contour>
  </outline>
</glyph>
<glyph name="uni1BB4" format="2">
  <advance width="535"/>
  <unicode hex="1BB4"/>
  <outline>
    <contour>
      <point x="137" y="0" type="line"/>
      <point x="233" y="0" type="line"/>
      <point x="334" y="303" type="line"/>
      <point x="514" y="303" type="line"/>
      <point x="554" y="426" type="line"/>
      <point x="463" y="426" type="line"/>
      <point x="449" y="382" type="line"/>
      <point x="360" y="382" type="line"/>
      <point x="471" y="714" type="line"/>
      <point x="116" y="714" type="line"/>
      <point x="70" y="574" type="line"/>
      <point x="161" y="574" type="line"/>
      <point x="181" y="635" type="line"/>
      <point x="348" y="635" type="line"/>
      <point x="264" y="382" type="line"/>
      <point x="85" y="382" type="line"/>
      <point x="45" y="259" type="line"/>
      <point x="136" y="259" type="line"/>
      <point x="150" y="303" type="line"/>
      <point x="237" y="303" type="line"/>
    </contour>
  </outline>
</glyph>
<glyph name="uni1BB5" format="2">
  <advance width="866"/>
  <unicode hex="1BB5"/>
  <outline>
    <contour>
      <point x="62" y="0" type="line"/>
      <point x="827" y="0" type="line"/>
      <point x="618" y="635" type="line"/>
      <point x="689" y="635" type="line"/>
      <point x="709" y="574" type="line"/>
      <point x="800" y="574" type="line"/>
      <point x="755" y="714" type="line"/>
      <point x="495" y="714" type="line"/>
      <point x="704" y="79" type="line"/>
      <point x="185" y="79" type="line"/>
      <point x="394" y="714" type="line"/>
      <point x="134" y="714" type="line"/>
      <point x="89" y="574" type="line"/>
      <point x="180" y="574" type="line"/>
      <point x="200" y="635" type="line"/>
      <point x="271" y="635" type="line"/>
    </contour>
  </outline>
</glyph>
<glyph name="uni1BB6" format="2">
  <advance width="663"/>
  <unicode hex="1BB6"/>
  <outline>
    <contour>
      <point x="-22" y="0" type="line"/>
      <point x="541" y="0" type="line"/>
      <point x="559" y="54" type="line"/>
      <point x="426" y="173" type="line" smooth="yes"/>
      <point x="408" y="189"/>
      <point x="376" y="217"/>
      <point x="376" y="236" type="curve" smooth="yes"/>
      <point x="376" y="251"/>
      <point x="382" y="272"/>
      <point x="421" y="272" type="curve" smooth="yes"/>
      <point x="621" y="272" type="line"/>
      <point x="647" y="351" type="line"/>
      <point x="420" y="351" type="line" smooth="yes"/>
      <point x="323" y="351"/>
      <point x="284" y="301"/>
      <point x="284" y="239" type="curve" smooth="yes"/>
      <point x="284" y="195"/>
      <point x="315" y="157"/>
      <point x="343" y="133" type="curve" smooth="yes"/>
      <point x="404" y="79" type="line"/>
      <point x="101" y="79" type="line"/>
      <point x="285" y="635" type="line"/>
      <point x="365" y="635" type="line"/>
      <point x="384" y="588" type="line"/>
      <point x="475" y="588" type="line"/>
      <point x="434" y="714" type="line"/>
      <point x="213" y="714" type="line"/>
    </contour>
  </outline>
</glyph>
<glyph name="uni1BB7" format="2">
  <advance width="742"/>
  <unicode hex="1BB7"/>
  <outline>
    <contour>
      <point x="-79" y="0" type="line"/>
      <point x="97" y="0" type="line"/>
      <point x="306" y="635" type="line"/>
      <point x="410" y="635" type="line"/>
      <point x="199" y="0" type="line"/>
      <point x="514" y="0" type="line"/>
      <point x="723" y="635" type="line"/>
      <point x="801" y="635" type="line"/>
      <point x="827" y="714" type="line"/>
      <point x="650" y="714" type="line"/>
      <point x="441" y="79" type="line"/>
      <point x="323" y="79" type="line"/>
      <point x="533" y="714" type="line"/>
      <point x="233" y="714" type="line"/>
      <point x="25" y="79" type="line"/>
      <point x="-53" y="79" type="line"/>
    </contour>
  </outline>
</glyph>
<glyph name="uni1BB8" format="2">
  <advance width="797"/>
  <unicode hex="1BB8"/>
  <outline>
    <contour>
      <point x="387" y="-14" type="curve" smooth="yes"/>
      <point x="497" y="-14"/>
      <point x="521" y="51"/>
      <point x="566" y="187" type="curve" smooth="yes"/>
      <point x="714" y="635" type="line"/>
      <point x="763" y="635" type="line"/>
      <point x="790" y="564" type="line"/>
      <point x="881" y="564" type="line"/>
      <point x="832" y="714" type="line"/>
      <point x="643" y="714" type="line"/>
      <point x="489" y="249" type="line" smooth="yes"/>
      <point x="442" y="107"/>
      <point x="441" y="76"/>
      <point x="387" y="76" type="curve" smooth="yes"/>
      <point x="346" y="76"/>
      <point x="302" y="142"/>
      <point x="290" y="158" type="curve"/>
      <point x="473" y="714" type="line"/>
      <point x="144" y="714" type="line"/>
      <point x="99" y="574" type="line"/>
      <point x="190" y="574" type="line"/>
      <point x="210" y="635" type="line"/>
      <point x="350" y="635" type="line"/>
      <point x="212" y="212" type="line"/>
      <point x="192" y="224"/>
      <point x="154" y="234"/>
      <point x="124" y="234" type="curve" smooth="yes"/>
      <point x="55" y="234"/>
      <point x="-10" y="193"/>
      <point x="-10" y="105" type="curve" smooth="yes"/>
      <point x="-10" y="21"/>
      <point x="56" y="-13"/>
      <point x="120" y="-13" type="curve" smooth="yes"/>
      <point x="189" y="-13"/>
      <point x="227" y="20"/>
      <point x="254" y="68" type="curve"/>
      <point x="270" y="51"/>
      <point x="313" y="-14"/>
    </contour>
    <contour>
      <point x="121" y="59" type="curve" smooth="yes"/>
      <point x="87" y="59"/>
      <point x="69" y="80"/>
      <point x="69" y="110" type="curve" smooth="yes"/>
      <point x="69" y="140"/>
      <point x="93" y="158"/>
      <point x="122" y="158" type="curve" smooth="yes"/>
      <point x="149" y="158"/>
      <point x="168" y="148"/>
      <point x="186" y="131" type="curve"/>
      <point x="179" y="110"/>
      <point x="163" y="59"/>
    </contour>
  </outline>
</glyph>
<glyph name="uni1BB9" format="2">
  <advance width="745"/>
  <unicode hex="1BB9"/>
  <outline>
    <contour>
      <point x="72" y="0" type="line"/>
      <point x="635" y="0" type="line"/>
      <point x="653" y="54" type="line"/>
      <point x="520" y="173" type="line" smooth="yes"/>
      <point x="502" y="189"/>
      <point x="470" y="217"/>
      <point x="470" y="236" type="curve" smooth="yes"/>
      <point x="470" y="251"/>
      <point x="476" y="272"/>
      <point x="515" y="272" type="curve" smooth="yes"/>
      <point x="715" y="272" type="line"/>
      <point x="741" y="351" type="line"/>
      <point x="514" y="351" type="line" smooth="yes"/>
      <point x="417" y="351"/>
      <point x="378" y="301"/>
      <point x="378" y="239" type="curve" smooth="yes"/>
      <point x="378" y="195"/>
      <point x="409" y="157"/>
      <point x="437" y="133" type="curve" smooth="yes"/>
      <point x="498" y="79" type="line"/>
      <point x="195" y="79" type="line"/>
      <point x="379" y="635" type="line"/>
      <point x="459" y="635" type="line"/>
      <point x="478" y="588" type="line"/>
      <point x="569" y="588" type="line"/>
      <point x="528" y="714" type="line"/>
      <point x="161" y="714" type="line"/>
      <point x="116" y="574" type="line"/>
      <point x="209" y="574" type="line"/>
      <point x="228" y="635" type="line"/>
      <point x="281" y="635" type="line"/>
    </contour>
  </outline>
</glyph>
<glyph name="uni1BBA" format="2">
  <advance width="364"/>
  <unicode hex="1BBA"/>
  <outline>
    <contour>
      <point x="71" y="0" type="line"/>
      <point x="169" y="0" type="line"/>
      <point x="406" y="714" type="line"/>
      <point x="159" y="714" type="line"/>
      <point x="133" y="635" type="line"/>
      <point x="280" y="635" type="line"/>
      <point x="262" y="580" type="line"/>
      <point x="116" y="580" type="line"/>
      <point x="90" y="501" type="line"/>
      <point x="236" y="501" type="line"/>
    </contour>
  </outline>
</glyph>
<glyph name="uni1BBB" format="2">
  <advance width="712"/>
  <unicode hex="1BBB"/>
  <outline>
    <contour>
      <point x="118" y="161" type="line"/>
      <point x="567" y="161" type="line"/>
      <point x="750" y="714" type="line"/>
      <point x="474" y="714" type="line"/>
      <point x="448" y="635" type="line"/>
      <point x="624" y="635" type="line"/>
      <point x="494" y="240" type="line"/>
      <point x="243" y="240" type="line"/>
      <point x="400" y="714" type="line"/>
      <point x="123" y="714" type="line"/>
      <point x="97" y="635" type="line"/>
      <point x="274" y="635" type="line"/>
    </contour>
    <contour>
      <point x="64" y="0" type="line"/>
      <point x="513" y="0" type="line"/>
      <point x="539" y="79" type="line"/>
      <point x="90" y="79" type="line"/>
    </contour>
  </outline>
</glyph>
<glyph name="uni1BBC" format="2">
  <advance width="1180"/>
  <unicode hex="1BBC"/>
  <outline>
    <contour>
      <point x="646" y="-303" type="curve" smooth="yes"/>
      <point x="706" y="-303"/>
      <point x="747" y="-272"/>
      <point x="765" y="-238" type="curve"/>
      <point x="789" y="-263"/>
      <point x="847" y="-300"/>
      <point x="906" y="-300" type="curve" smooth="yes"/>
      <point x="1085" y="-300"/>
      <point x="1114" y="0"/>
      <point x="1118" y="108" type="curve"/>
      <point x="1030" y="108" type="line"/>
      <point x="1030" y="84"/>
      <point x="1030" y="60"/>
      <point x="1028" y="37" type="curve" smooth="yes"/>
      <point x="1016" y="-98"/>
      <point x="977" y="-215"/>
      <point x="906" y="-215" type="curve" smooth="yes"/>
      <point x="869" y="-215"/>
      <point x="829" y="-176"/>
      <point x="809" y="-156" type="curve"/>
      <point x="1099" y="714" type="line"/>
      <point x="772" y="714" type="line"/>
      <point x="746" y="635" type="line"/>
      <point x="976" y="635" type="line"/>
      <point x="733" y="-86" type="line"/>
      <point x="709" y="-66"/>
      <point x="679" y="-52"/>
      <point x="643" y="-52" type="curve" smooth="yes"/>
      <point x="555" y="-52"/>
      <point x="509" y="-119"/>
      <point x="509" y="-179" type="curve" smooth="yes"/>
      <point x="509" y="-246"/>
      <point x="557" y="-303"/>
    </contour>
    <contour>
      <point x="641" y="-229" type="curve" smooth="yes"/>
      <point x="610" y="-229"/>
      <point x="588" y="-209"/>
      <point x="588" y="-178" type="curve" smooth="yes"/>
      <point x="588" y="-146"/>
      <point x="612" y="-125"/>
      <point x="643" y="-125" type="curve" smooth="yes"/>
      <point x="676" y="-125"/>
      <point x="690" y="-153"/>
      <point x="698" y="-168" type="curve"/>
      <point x="693" y="-198"/>
      <point x="673" y="-229"/>
    </contour>
    <contour>
      <point x="-22" y="0" type="line"/>
      <point x="379" y="0" type="line"/>
      <point x="472" y="284" type="line"/>
      <point x="567" y="0" type="line"/>
      <point x="662" y="0" type="line"/>
      <point x="518" y="414" type="line"/>
      <point x="426" y="414" type="line"/>
      <point x="308" y="79" type="line"/>
      <point x="101" y="79" type="line"/>
      <point x="284" y="635" type="line"/>
      <point x="487" y="635" type="line"/>
      <point x="513" y="714" type="line"/>
      <point x="214" y="714" type="line"/>
    </contour>
  </outline>
</glyph>
<glyph name="uni1BBD" format="2">
  <advance width="1336"/>
  <unicode hex="1BBD"/>
  <outline>
    <contour>
      <point x="140" y="0" type="line"/>
      <point x="988" y="0" type="line"/>
      <point x="1014" y="79" type="line"/>
      <point x="791" y="79" type="line"/>
      <point x="974" y="635" type="line"/>
      <point x="1246" y="635" type="line"/>
      <point x="1158" y="363" type="line"/>
      <point x="1037" y="363" type="line"/>
      <point x="1011" y="284" type="line"/>
      <point x="1230" y="284" type="line"/>
      <point x="1372" y="714" type="line"/>
      <point x="902" y="714" type="line"/>
      <point x="692" y="79" type="line"/>
      <point x="474" y="79" type="line"/>
      <point x="686" y="714" type="line"/>
      <point x="213" y="714" type="line"/>
      <point x="69" y="275" type="line"/>
      <point x="279" y="275" type="line"/>
      <point x="305" y="354" type="line"/>
      <point x="193" y="354" type="line"/>
      <point x="286" y="635" type="line"/>
      <point x="559" y="635" type="line"/>
      <point x="375" y="79" type="line"/>
      <point x="166" y="79" type="line"/>
    </contour>
  </outline>
</glyph>
<glyph name="uni1BBE" format="2">
  <advance width="1075"/>
  <unicode hex="1BBE"/>
  <outline>
    <contour>
      <point x="74" y="0" type="line"/>
      <point x="1008" y="0" type="line"/>
      <point x="1034" y="79" type="line"/>
      <point x="828" y="79" type="line"/>
      <point x="1038" y="714" type="line"/>
      <point x="600" y="714" type="line"/>
      <point x="574" y="635" type="line"/>
      <point x="912" y="635" type="line"/>
      <point x="729" y="79" type="line"/>
      <point x="343" y="79" type="line"/>
      <point x="553" y="714" type="line"/>
      <point x="108" y="714" type="line"/>
      <point x="82" y="635" type="line"/>
      <point x="427" y="635" type="line"/>
      <point x="244" y="79" type="line"/>
      <point x="100" y="79" type="line"/>
    </contour>
    <contour>
      <point x="136" y="176" type="line"/>
      <point x="219" y="176" type="line"/>
      <point x="338" y="535" type="line"/>
      <point x="97" y="535" type="line"/>
      <point x="72" y="460" type="line"/>
      <point x="230" y="460" type="line"/>
    </contour>
    <contour>
      <point x="621" y="176" type="line"/>
      <point x="704" y="176" type="line"/>
      <point x="823" y="535" type="line"/>
      <point x="582" y="535" type="line"/>
      <point x="557" y="460" type="line"/>
      <point x="715" y="460" type="line"/>
    </contour>
  </outline>
</glyph>
<glyph name="uni1BBF" format="2">
  <advance width="727"/>
  <unicode hex="1BBF"/>
  <outline>
    <contour>
      <point x="427" y="0" type="line"/>
      <point x="526" y="0" type="line"/>
      <point x="764" y="714" type="line"/>
      <point x="138" y="714" type="line"/>
      <point x="112" y="635" type="line"/>
      <point x="641" y="635" type="line"/>
    </contour>
    <contour>
      <point x="112" y="41" type="line"/>
      <point x="353" y="41" type="line"/>
      <point x="379" y="120" type="line"/>
      <point x="138" y="120" type="line"/>
    </contour>
    <contour>
      <point x="112" y="239" type="line"/>
      <point x="418" y="239" type="line"/>
      <point x="444" y="318" type="line"/>
      <point x="138" y="318" type="line"/>
    </contour>
    <contour>
      <point x="112" y="437" type="line"/>
      <point x="483" y="437" type="line"/>
      <point x="509" y="516" type="line"/>
      <point x="138" y="516" type="line"/>
    </contour>
  </outline>
</glyph>
<glyph name="uni1CC0" format="2">
  <advance width="1018"/>
  <unicode hex="1CC0"/>
  <outline>
    <contour>
      <point x="375" y="-113" type="line"/>
      <point x="436" y="-113" type="line"/>
      <point x="508" y="-22" type="line"/>
      <point x="580" y="-113" type="line"/>
      <point x="641" y="-113" type="line"/>
      <point x="556" y="-5" type="line"/>
      <point x="556" y="81" type="line"/>
      <point x="673" y="101"/>
      <point x="764" y="193"/>
      <point x="784" y="311" type="curve"/>
      <point x="870" y="311" type="line"/>
      <point x="978" y="226" type="line"/>
      <point x="978" y="287" type="line"/>
      <point x="887" y="359" type="line"/>
      <point x="978" y="431" type="line"/>
      <point x="978" y="492" type="line"/>
      <point x="870" y="407" type="line"/>
      <point x="784" y="407" type="line"/>
      <point x="764" y="525"/>
      <point x="673" y="615"/>
      <point x="556" y="635" type="curve"/>
      <point x="556" y="721" type="line"/>
      <point x="641" y="829" type="line"/>
      <point x="580" y="829" type="line"/>
      <point x="508" y="738" type="line"/>
      <point x="436" y="829" type="line"/>
      <point x="375" y="829" type="line"/>
      <point x="460" y="721" type="line"/>
      <point x="460" y="635" type="line"/>
      <point x="343" y="615"/>
      <point x="250" y="525"/>
      <point x="230" y="407" type="curve"/>
      <point x="144" y="407" type="line"/>
      <point x="36" y="492" type="line"/>
      <point x="36" y="431" type="line"/>
      <point x="127" y="359" type="line"/>
      <point x="36" y="287" type="line"/>
      <point x="36" y="226" type="line"/>
      <point x="144" y="311" type="line"/>
      <point x="230" y="311" type="line"/>
      <point x="250" y="193"/>
      <point x="343" y="101"/>
      <point x="460" y="81" type="curve"/>
      <point x="460" y="-5" type="line"/>
    </contour>
    <contour>
      <point x="508" y="154" type="curve" smooth="yes"/>
      <point x="397" y="154"/>
      <point x="302" y="247"/>
      <point x="302" y="358" type="curve" smooth="yes"/>
      <point x="302" y="469"/>
      <point x="397" y="562"/>
      <point x="508" y="562" type="curve" smooth="yes"/>
      <point x="619" y="562"/>
      <point x="711" y="469"/>
      <point x="711" y="358" type="curve" smooth="yes"/>
      <point x="711" y="247"/>
      <point x="619" y="154"/>
    </contour>
    <contour>
      <point x="508" y="260" type="curve" smooth="yes"/>
      <point x="561" y="260"/>
      <point x="606" y="305"/>
      <point x="606" y="358" type="curve" smooth="yes"/>
      <point x="606" y="411"/>
      <point x="561" y="456"/>
      <point x="508" y="456" type="curve" smooth="yes"/>
      <point x="455" y="456"/>
      <point x="410" y="411"/>
      <point x="410" y="358" type="curve" smooth="yes"/>
      <point x="410" y="305"/>
      <point x="455" y="260"/>
    </contour>
    <contour>
      <point x="508" y="313" type="curve" smooth="yes"/>
      <point x="483" y="313"/>
      <point x="463" y="333"/>
      <point x="463" y="358" type="curve" smooth="yes"/>
      <point x="463" y="383"/>
      <point x="483" y="403"/>
      <point x="508" y="403" type="curve" smooth="yes"/>
      <point x="533" y="403"/>
      <point x="553" y="383"/>
      <point x="553" y="358" type="curve" smooth="yes"/>
      <point x="553" y="333"/>
      <point x="533" y="313"/>
    </contour>
  </outline>
</glyph>
<glyph name="uni1CC1" format="2">
  <advance width="674"/>
  <unicode hex="1CC1"/>
  <outline>
    <contour>
      <point x="344" y="81" type="curve" smooth="yes"/>
      <point x="497" y="81"/>
      <point x="621" y="205"/>
      <point x="621" y="358" type="curve" smooth="yes"/>
      <point x="621" y="511"/>
      <point x="497" y="635"/>
      <point x="344" y="635" type="curve" smooth="yes"/>
      <point x="191" y="635"/>
      <point x="67" y="511"/>
      <point x="67" y="358" type="curve" smooth="yes"/>
      <point x="67" y="205"/>
      <point x="191" y="81"/>
    </contour>
    <contour>
      <point x="179" y="239" type="line"/>
      <point x="154" y="272"/>
      <point x="140" y="313"/>
      <point x="140" y="358" type="curve" smooth="yes"/>
      <point x="140" y="402"/>
      <point x="154" y="443"/>
      <point x="178" y="476" type="curve"/>
      <point x="297" y="357" type="line"/>
    </contour>
    <contour>
      <point x="344" y="154" type="curve" smooth="yes"/>
      <point x="299" y="154"/>
      <point x="258" y="168"/>
      <point x="225" y="193" type="curve"/>
      <point x="343" y="311" type="line"/>
      <point x="462" y="192" type="line"/>
      <point x="429" y="168"/>
      <point x="388" y="154"/>
    </contour>
    <contour>
      <point x="343" y="403" type="line"/>
      <point x="224" y="522" type="line"/>
      <point x="258" y="547"/>
      <point x="299" y="562"/>
      <point x="344" y="562" type="curve" smooth="yes"/>
      <point x="388" y="562"/>
      <point x="429" y="547"/>
      <point x="463" y="523" type="curve"/>
    </contour>
    <contour>
      <point x="508" y="238" type="curve"/>
      <point x="389" y="357" type="line"/>
      <point x="509" y="477" type="line"/>
      <point x="533" y="443"/>
      <point x="548" y="402"/>
      <point x="548" y="358" type="curve" smooth="yes"/>
      <point x="548" y="313"/>
      <point x="533" y="272"/>
    </contour>
  </outline>
</glyph>
<glyph name="uni1CC2" format="2">
  <advance width="674"/>
  <unicode hex="1CC2"/>
  <outline>
    <contour>
      <point x="344" y="81" type="curve" smooth="yes"/>
      <point x="497" y="81"/>
      <point x="621" y="205"/>
      <point x="621" y="358" type="curve" smooth="yes"/>
      <point x="621" y="511"/>
      <point x="497" y="635"/>
      <point x="344" y="635" type="curve" smooth="yes"/>
      <point x="191" y="635"/>
      <point x="67" y="511"/>
      <point x="67" y="358" type="curve" smooth="yes"/>
      <point x="67" y="205"/>
      <point x="191" y="81"/>
    </contour>
    <contour>
      <point x="344" y="154" type="curve" smooth="yes"/>
      <point x="293" y="154"/>
      <point x="247" y="173"/>
      <point x="211" y="203" type="curve"/>
      <point x="234" y="221"/>
      <point x="281" y="248"/>
      <point x="344" y="248" type="curve" smooth="yes"/>
      <point x="407" y="248"/>
      <point x="453" y="221"/>
      <point x="476" y="203" type="curve"/>
      <point x="441" y="173"/>
      <point x="394" y="154"/>
    </contour>
    <contour>
      <point x="169" y="253" type="curve"/>
      <point x="151" y="284"/>
      <point x="140" y="319"/>
      <point x="140" y="358" type="curve" smooth="yes"/>
      <point x="140" y="396"/>
      <point x="151" y="432"/>
      <point x="169" y="463" type="curve"/>
      <point x="201" y="438"/>
      <point x="263" y="402"/>
      <point x="344" y="402" type="curve" smooth="yes"/>
      <point x="425" y="402"/>
      <point x="487" y="438"/>
      <point x="518" y="463" type="curve"/>
      <point x="537" y="432"/>
      <point x="548" y="396"/>
      <point x="548" y="358" type="curve" smooth="yes"/>
      <point x="548" y="319"/>
      <point x="537" y="284"/>
      <point x="518" y="253" type="curve"/>
      <point x="487" y="277"/>
      <point x="425" y="314"/>
      <point x="344" y="314" type="curve" smooth="yes"/>
      <point x="263" y="314"/>
      <point x="201" y="277"/>
    </contour>
    <contour>
      <point x="344" y="468" type="curve" smooth="yes"/>
      <point x="281" y="468"/>
      <point x="234" y="495"/>
      <point x="211" y="512" type="curve"/>
      <point x="247" y="543"/>
      <point x="293" y="562"/>
      <point x="344" y="562" type="curve" smooth="yes"/>
      <point x="394" y="562"/>
      <point x="441" y="543"/>
      <point x="476" y="512" type="curve"/>
      <point x="453" y="495"/>
      <point x="407" y="468"/>
    </contour>
  </outline>
</glyph>
<glyph name="uni1CC3" format="2">
  <advance width="674"/>
  <unicode hex="1CC3"/>
  <outline>
    <contour>
      <point x="344" y="81" type="curve" smooth="yes"/>
      <point x="497" y="81"/>
      <point x="621" y="205"/>
      <point x="621" y="358" type="curve" smooth="yes"/>
      <point x="621" y="511"/>
      <point x="497" y="635"/>
      <point x="344" y="635" type="curve" smooth="yes"/>
      <point x="191" y="635"/>
      <point x="67" y="511"/>
      <point x="67" y="358" type="curve" smooth="yes"/>
      <point x="67" y="205"/>
      <point x="191" y="81"/>
    </contour>
    <contour>
      <point x="344" y="154" type="curve" smooth="yes"/>
      <point x="232" y="154"/>
      <point x="140" y="246"/>
      <point x="140" y="358" type="curve" smooth="yes"/>
      <point x="140" y="470"/>
      <point x="232" y="562"/>
      <point x="344" y="562" type="curve" smooth="yes"/>
      <point x="456" y="562"/>
      <point x="548" y="470"/>
      <point x="548" y="358" type="curve" smooth="yes"/>
      <point x="548" y="246"/>
      <point x="456" y="154"/>
    </contour>
  </outline>
</glyph>
<glyph name="uni1CC4" format="2">
  <advance width="1680"/>
  <unicode hex="1CC4"/>
  <outline>
    <contour>
      <point x="925" y="-303" type="curve" smooth="yes"/>
      <point x="985" y="-303"/>
      <point x="1026" y="-272"/>
      <point x="1044" y="-238" type="curve"/>
      <point x="1068" y="-263"/>
      <point x="1126" y="-300"/>
      <point x="1185" y="-300" type="curve" smooth="yes"/>
      <point x="1264" y="-300"/>
      <point x="1305" y="-240"/>
      <point x="1328" y="-192" type="curve"/>
      <point x="1260" y="-152" type="line"/>
      <point x="1243" y="-184"/>
      <point x="1228" y="-215"/>
      <point x="1185" y="-215" type="curve" smooth="yes"/>
      <point x="1148" y="-215"/>
      <point x="1108" y="-176"/>
      <point x="1088" y="-156" type="curve"/>
      <point x="1378" y="714" type="line"/>
      <point x="1051" y="714" type="line"/>
      <point x="1025" y="635" type="line"/>
      <point x="1255" y="635" type="line"/>
      <point x="1012" y="-86" type="line"/>
      <point x="988" y="-66"/>
      <point x="958" y="-52"/>
      <point x="922" y="-52" type="curve" smooth="yes"/>
      <point x="834" y="-52"/>
      <point x="788" y="-119"/>
      <point x="788" y="-179" type="curve" smooth="yes"/>
      <point x="788" y="-246"/>
      <point x="836" y="-303"/>
    </contour>
    <contour>
      <point x="-22" y="0" type="line"/>
      <point x="379" y="0" type="line"/>
      <point x="472" y="284" type="line"/>
      <point x="567" y="0" type="line"/>
      <point x="662" y="0" type="line"/>
      <point x="518" y="414" type="line"/>
      <point x="426" y="414" type="line"/>
      <point x="308" y="79" type="line"/>
      <point x="101" y="79" type="line"/>
      <point x="284" y="635" type="line"/>
      <point x="487" y="635" type="line"/>
      <point x="513" y="714" type="line"/>
      <point x="214" y="714" type="line"/>
    </contour>
    <contour>
      <point x="920" y="-229" type="curve" smooth="yes"/>
      <point x="889" y="-229"/>
      <point x="867" y="-209"/>
      <point x="867" y="-178" type="curve" smooth="yes"/>
      <point x="867" y="-146"/>
      <point x="891" y="-125"/>
      <point x="922" y="-125" type="curve" smooth="yes"/>
      <point x="955" y="-125"/>
      <point x="969" y="-153"/>
      <point x="977" y="-168" type="curve"/>
      <point x="972" y="-198"/>
      <point x="952" y="-229"/>
    </contour>
    <contour>
      <point x="712" y="41" type="line"/>
      <point x="951" y="41" type="line"/>
      <point x="977" y="120" type="line"/>
      <point x="738" y="120" type="line"/>
    </contour>
    <contour>
      <point x="652" y="239" type="line"/>
      <point x="1017" y="239" type="line"/>
      <point x="1043" y="318" type="line"/>
      <point x="678" y="318" type="line"/>
    </contour>
    <contour>
      <point x="593" y="437" type="line"/>
      <point x="1078" y="437" type="line"/>
      <point x="1104" y="516" type="line"/>
      <point x="619" y="516" type="line"/>
    </contour>
    <contour>
      <point x="533" y="635" type="line"/>
      <point x="975" y="635" type="line"/>
      <point x="1001" y="714" type="line"/>
      <point x="559" y="714" type="line"/>
    </contour>
    <contour>
      <point x="1269" y="41" type="line"/>
      <point x="1508" y="41" type="line"/>
      <point x="1534" y="120" type="line"/>
      <point x="1295" y="120" type="line"/>
    </contour>
    <contour>
      <point x="1335" y="239" type="line"/>
      <point x="1574" y="239" type="line"/>
      <point x="1600" y="318" type="line"/>
      <point x="1361" y="318" type="line"/>
    </contour>
    <contour>
      <point x="1401" y="437" type="line"/>
      <point x="1640" y="437" type="line"/>
      <point x="1666" y="516" type="line"/>
      <point x="1427" y="516" type="line"/>
    </contour>
    <contour>
      <point x="1465" y="635" type="line"/>
      <point x="1704" y="635" type="line"/>
      <point x="1730" y="714" type="line"/>
      <point x="1491" y="714" type="line"/>
    </contour>
  </outline>
</glyph>
<glyph name="uni1CC5" format="2">
  <advance width="744"/>
  <unicode hex="1CC5"/>
  <outline>
    <contour>
      <point x="90" y="0" type="line"/>
      <point x="189" y="0" type="line"/>
      <point x="427" y="714" type="line"/>
      <point x="100" y="714" type="line"/>
      <point x="74" y="635" type="line"/>
      <point x="304" y="635" type="line"/>
    </contour>
    <contour>
      <point x="319" y="41" type="line"/>
      <point x="558" y="41" type="line"/>
      <point x="584" y="120" type="line"/>
      <point x="345" y="120" type="line"/>
    </contour>
    <contour>
      <point x="385" y="239" type="line"/>
      <point x="624" y="239" type="line"/>
      <point x="650" y="318" type="line"/>
      <point x="411" y="318" type="line"/>
    </contour>
    <contour>
      <point x="451" y="437" type="line"/>
      <point x="690" y="437" type="line"/>
      <point x="716" y="516" type="line"/>
      <point x="477" y="516" type="line"/>
    </contour>
    <contour>
      <point x="515" y="635" type="line"/>
      <point x="754" y="635" type="line"/>
      <point x="780" y="714" type="line"/>
      <point x="541" y="714" type="line"/>
    </contour>
  </outline>
</glyph>
<glyph name="uni1CC6" format="2">
  <advance width="1135"/>
  <unicode hex="1CC6"/>
  <outline>
    <contour>
      <point x="-22" y="0" type="line"/>
      <point x="379" y="0" type="line"/>
      <point x="472" y="284" type="line"/>
      <point x="567" y="0" type="line"/>
      <point x="662" y="0" type="line"/>
      <point x="518" y="414" type="line"/>
      <point x="426" y="414" type="line"/>
      <point x="308" y="79" type="line"/>
      <point x="101" y="79" type="line"/>
      <point x="284" y="635" type="line"/>
      <point x="487" y="635" type="line"/>
      <point x="512" y="714" type="line"/>
      <point x="214" y="714" type="line"/>
    </contour>
    <contour>
      <point x="712" y="41" type="line"/>
      <point x="951" y="41" type="line"/>
      <point x="977" y="120" type="line"/>
      <point x="738" y="120" type="line"/>
    </contour>
    <contour>
      <point x="652" y="239" type="line"/>
      <point x="1017" y="239" type="line"/>
      <point x="1043" y="318" type="line"/>
      <point x="678" y="318" type="line"/>
    </contour>
    <contour>
      <point x="593" y="437" type="line"/>
      <point x="1078" y="437" type="line"/>
      <point x="1104" y="516" type="line"/>
      <point x="619" y="516" type="line"/>
    </contour>
    <contour>
      <point x="533" y="635" type="line"/>
      <point x="1154" y="635" type="line"/>
      <point x="1180" y="714" type="line"/>
      <point x="559" y="714" type="line"/>
    </contour>
  </outline>
</glyph>
<glyph name="uni1CC7" format="2">
  <advance width="1645"/>
  <unicode hex="1CC7"/>
  <outline>
    <contour>
      <point x="301" y="0" type="line"/>
      <point x="691" y="0" type="line"/>
      <point x="797" y="323" type="line"/>
      <point x="1031" y="0" type="line"/>
      <point x="1093" y="0" type="line"/>
      <point x="1331" y="714" type="line"/>
      <point x="840" y="714" type="line"/>
      <point x="798" y="589" type="line"/>
      <point x="894" y="589" type="line"/>
      <point x="910" y="635" type="line"/>
      <point x="1208" y="635" type="line"/>
      <point x="1039" y="135" type="line"/>
      <point x="796" y="474" type="line"/>
      <point x="753" y="474" type="line"/>
      <point x="621" y="79" type="line"/>
      <point x="424" y="79" type="line"/>
      <point x="607" y="635" type="line"/>
      <point x="700" y="635" type="line"/>
      <point x="725" y="714" type="line"/>
      <point x="537" y="714" type="line"/>
    </contour>
    <contour>
      <point x="-48" y="41" type="line"/>
      <point x="191" y="41" type="line"/>
      <point x="217" y="120" type="line"/>
      <point x="-22" y="120" type="line"/>
    </contour>
    <contour>
      <point x="16" y="239" type="line"/>
      <point x="255" y="239" type="line"/>
      <point x="281" y="318" type="line"/>
      <point x="42" y="318" type="line"/>
    </contour>
    <contour>
      <point x="82" y="437" type="line"/>
      <point x="321" y="437" type="line"/>
      <point x="347" y="516" type="line"/>
      <point x="108" y="516" type="line"/>
    </contour>
    <contour>
      <point x="146" y="635" type="line"/>
      <point x="385" y="635" type="line"/>
      <point x="411" y="714" type="line"/>
      <point x="172" y="714" type="line"/>
    </contour>
    <contour>
      <point x="1232" y="41" type="line"/>
      <point x="1471" y="41" type="line"/>
      <point x="1497" y="120" type="line"/>
      <point x="1258" y="120" type="line"/>
    </contour>
    <contour>
      <point x="1296" y="239" type="line"/>
      <point x="1535" y="239" type="line"/>
      <point x="1561" y="318" type="line"/>
      <point x="1322" y="318" type="line"/>
    </contour>
    <contour>
      <point x="1362" y="437" type="line"/>
      <point x="1601" y="437" type="line"/>
      <point x="1627" y="516" type="line"/>
      <point x="1388" y="516" type="line"/>
    </contour>
    <contour>
      <point x="1426" y="635" type="line"/>
      <point x="1665" y="635" type="line"/>
      <point x="1691" y="714" type="line"/>
      <point x="1452" y="714" type="line"/>
    </contour>
  </outline>
</glyph>
